<svg width="68" height="68" viewBox="0 0 68 68" fill="none" xmlns="http://www.w3.org/2000/svg">
<g clip-path="url(#clip0_27_1129)">
<path d="M28.5602 43.4442L25.3606 27.4769C23.0267 27.7099 20.6863 26.67 19.2558 24.7594C17.0079 21.7571 17.6251 17.4615 20.6274 15.2136C23.6297 12.9656 27.9254 13.5829 30.1733 16.5852C31.6038 18.4957 31.9427 21.0343 31.0316 23.2309L45.452 30.7968L44.1176 31.7959L29.6746 24.1996C29.2959 24.0099 29.175 23.5324 29.3648 23.1537C30.3285 21.3436 30.1636 19.1007 28.9375 17.4631C27.1891 15.128 23.8481 14.6479 21.513 16.3963C19.1778 18.1447 18.6978 21.4857 20.4461 23.8208C21.6723 25.4585 23.778 26.2482 25.7863 25.8331C26.2031 25.7576 26.5968 26.0307 26.7026 26.4248L29.9249 42.4224L28.5602 43.4442Z" fill="#FFC52F"/>
<path d="M40.113 36.6871C39.6816 36.1109 38.6589 35.8828 38.0524 36.3369L35.323 38.3805C34.7468 38.8119 34.6478 39.5013 35.0792 40.0775L35.715 40.9266L32.0758 43.6514L30.7134 41.8318L20.6148 49.393C19.2804 50.392 18.7257 52.3692 19.7248 53.7035L27.899 64.621C28.8981 65.9554 31.0649 66.1314 32.3993 65.1323L65.1517 40.6096C66.486 39.6106 66.5027 37.7997 65.5036 36.4653L57.3294 25.5479C56.3303 24.2135 54.7015 23.8712 53.3672 24.8703L43.1472 32.5223L44.5096 34.3419L40.5672 37.2937L40.113 36.6871Z" fill="#676767"/>
<path d="M30.1369 42.6423C30.1066 42.665 30.0459 42.7104 29.9929 42.7028C29.7958 42.7556 29.599 42.6191 29.5461 42.4221L26.3085 26.5305C26.2556 26.3335 26.0587 26.197 25.8617 26.2498C23.6867 26.6951 21.4522 25.8598 20.1353 24.1009C18.2506 21.5838 18.7612 18.0306 21.2783 16.146C23.7954 14.2614 27.3485 14.772 29.2331 17.289C30.5501 19.048 30.7224 21.4273 29.6828 23.3888C29.5766 23.563 29.6522 23.7904 29.8264 23.8966L44.0876 31.4397C44.2618 31.5459 44.3374 31.7733 44.2312 31.9475C44.1249 32.1217 43.8976 32.1973 43.7234 32.091L29.4621 24.5479C28.9092 24.252 28.7128 23.5472 29.0088 22.9943C29.927 21.313 29.7392 19.2291 28.6039 17.7128C26.9691 15.5293 23.8932 15.0874 21.7097 16.7222C19.5262 18.3571 19.0842 21.4329 20.7191 23.6164C21.8544 25.1328 23.7783 25.8693 25.6729 25.492C26.2867 25.3637 26.8774 25.7733 27.036 26.3644L30.2736 42.256C30.2811 42.3923 30.2279 42.5741 30.1369 42.6423ZM28.7722 43.664C28.7419 43.6867 28.6812 43.7322 28.6282 43.7245C28.4312 43.7774 28.2343 43.6409 28.1814 43.4438L25.0345 27.863C22.6628 27.9823 20.33 26.8894 18.9222 25.0091C16.5381 21.8249 17.1858 17.3171 20.37 14.933C23.5543 12.5488 28.0621 13.1965 30.4462 16.3808C31.8767 18.2913 32.2459 20.8072 31.4637 23.0493L45.475 30.4483C45.6492 30.5545 45.7248 30.7819 45.6186 30.956C45.5123 31.1302 45.285 31.2058 45.1108 31.0996L30.7965 23.5489C30.6223 23.4427 30.5391 23.2683 30.6226 23.0638C31.4654 20.9657 31.1566 18.5938 29.817 16.8046C27.6826 13.9539 23.6521 13.3748 20.8014 15.5092C17.9508 17.6435 17.3716 21.674 19.506 24.5247C20.8457 26.3139 23.0346 27.278 25.2852 27.0601C25.4746 27.0602 25.6488 27.1665 25.7017 27.3635L28.9165 43.2247C28.9467 43.3914 28.8935 43.5732 28.7722 43.664Z" fill="white"/>
<path d="M65.515 41.0951L32.7626 65.6177C31.2159 66.7758 28.5567 66.4478 27.4668 64.9921L19.2926 54.0746C18.18 52.5887 19.038 50.3845 20.5239 49.2719L30.471 41.8242C30.6529 41.688 30.8651 41.7185 31.0013 41.9004L32.1366 43.4167L35.1692 41.1461L34.7151 40.5396C34.1702 39.8118 34.3224 38.9405 35.1109 38.3502L37.9919 36.1931C38.7197 35.6482 39.7273 35.7929 40.3177 36.5814L40.6583 37.0363L43.9942 34.5386L42.8589 33.0223C42.7226 32.8404 42.7531 32.6282 42.9351 32.492L53.3067 24.7265C54.7623 23.6366 56.3987 23.9258 57.534 25.4422L65.7083 36.3596C66.7678 37.838 67.0616 39.937 65.515 41.0951ZM20.9554 49.8481C19.7423 50.7563 19.0363 52.4681 19.8764 53.5902L28.0506 64.5077C28.9135 65.6601 31.0727 65.8891 32.2857 64.9809L65.0382 40.4582C66.1906 39.5954 65.9115 37.9585 65.0487 36.8061L56.8745 25.8887C56.3522 25.1912 55.2544 24.1674 53.7078 25.3254L43.6394 32.8638L44.7747 34.3802C44.911 34.5621 44.8805 34.7742 44.6985 34.9105L40.7561 37.8623C40.5742 37.9985 40.362 37.968 40.2258 37.7861L39.6581 37.0279C39.3403 36.6034 38.8176 36.4741 38.393 36.792L35.512 38.9491C35.2997 39.108 34.8599 39.532 35.2686 40.0779L35.9498 40.9876C36.086 41.1696 36.0556 41.3817 35.8736 41.518L32.2344 44.2427C32.0525 44.379 31.8403 44.3485 31.7041 44.1665L30.5688 42.6502L20.9554 49.8481Z" fill="white"/>
</g>
<defs>
<clipPath id="clip0_27_1129">
<rect width="48" height="48" fill="white" transform="translate(0.80957 29.5784) rotate(-36.8233)"/>
</clipPath>
</defs>
</svg>
